<svg width="1458" height="258" viewBox="0 0 1458 258" fill="none" xmlns="http://www.w3.org/2000/svg">
<path d="M51.8 105.8C34 101.4 20.9 95.1 12.5 86.9C4.3 78.5 0.2 66.4 0.2 50.6C0.2 34.8 5.6 22.5 16.4 13.7C27.4 4.89999 41.5 0.499994 58.7 0.499994C75.9 0.499994 93.4 3.6 111.2 9.8L107 25.1C90.4 19.1 75.1 16.1 61.1 16.1C47.3 16.1 36.7 19.1 29.3 25.1C21.9 30.9 18.2 39.4 18.2 50.6C18.2 61.8 21.2 70.3 27.2 76.1C33.2 81.9 45.1 87.2 62.9 92C80.9 96.6 93.9 102.8 101.9 110.6C109.9 118.2 113.9 130.6 113.9 147.8C113.9 164.8 108.1 178.3 96.5 188.3C85.1 198.1 70.3 203 52.1 203C38.5 203 21.3 200.1 0.500001 194.3L4.4 179C24.8 184.6 41.2 187.4 53.6 187.4C66 187.4 76.2 184 84.2 177.2C92.2 170.2 96.2 160.5 96.2 148.1C96.2 135.7 93.3 126.6 87.5 120.8C81.7 115 69.8 110 51.8 105.8ZM199.4 187.1C206.8 187.1 214.8 184.8 223.4 180.2C232.2 175.4 238.6 171 242.6 167V131.3C229.4 130.3 216.8 129.8 204.8 129.8C192.8 129.8 183.8 132.4 177.8 137.6C171.8 142.6 168.8 149.4 168.8 158C168.8 177.4 179 187.1 199.4 187.1ZM199.1 202.7C184.5 202.7 173 199 164.6 191.6C156.2 184 152 173.3 152 159.5C152 145.7 156.6 135 165.8 127.4C175 119.6 187.2 115.7 202.4 115.7C217.6 115.7 231 116.3 242.6 117.5C242.6 99.7 240.4 87.6 236 81.2C231.6 74.6 222.7 71.3 209.3 71.3C195.9 71.3 180.1 74.5 161.9 80.9L157.4 65.9C176 59.1 192.8 55.7 207.8 55.7C227.6 55.7 241 60.1 248 68.9C255 77.7 258.5 93.1 258.5 115.1V178.1L260.9 200.9L245.6 202.4L242.6 184.4C238 188.4 231.5 192.5 223.1 196.7C214.7 200.7 206.7 202.7 199.1 202.7ZM322.1 57.5L322.7 69.5C342.1 60.3 358.2 55.7 371 55.7C383.8 55.7 393.8 60.1 401 68.9C408.4 77.7 412.1 89.7 412.1 104.9V200H396.2V104.9C396.2 95.1 393.8 87 389 80.6C384.2 74.4 377 71.3 367.4 71.3C357.8 71.3 342.9 75.7 322.7 84.5V200H306.8V57.5H322.1ZM450.8 76.4V61.4H479.9V25.1L495.8 22.1V61.4H564.5V76.4H495.8V144.8C495.8 160 498 171 502.4 177.8C507 184.4 515.1 187.7 526.7 187.7C531.1 187.7 537.9 187 547.1 185.6C556.3 184 562.6 182.6 566 181.4L569.6 196.1C565.8 197.5 558.8 199 548.6 200.6C538.6 202.2 531.3 203 526.7 203C508.7 203 496.4 198.3 489.8 188.9C483.2 179.3 479.9 164.8 479.9 145.4V76.4H450.8ZM601.7 129.2C601.7 80.2 620.8 55.7 659 55.7C697.2 55.7 716.3 80.2 716.3 129.2C716.3 178.2 697.2 202.7 659 202.7C620.8 202.7 601.7 178.2 601.7 129.2ZM659 71.3C632.2 71.3 618.8 90.6 618.8 129.2C618.8 167.8 632.2 187.1 659 187.1C685.8 187.1 699.2 167.8 699.2 129.2C699.2 90.6 685.8 71.3 659 71.3ZM757.4 193.1L761.3 177.5C781.1 184.1 796.4 187.4 807.2 187.4C818 187.4 826.3 185.1 832.1 180.5C838.1 175.7 841.1 169.4 841.1 161.6C841.1 153.8 838.7 148.1 833.9 144.5C829.3 140.7 819.6 137.1 804.8 133.7C790 130.3 778.9 125.4 771.5 119C764.1 113 760.4 104 760.4 92C760.4 80 764.9 70.9 773.9 64.7C783.1 58.3 794.9 55.1 809.3 55.1C823.7 55.1 839.3 58.3 856.1 64.7L851.9 78.8C834.9 73.2 821.2 70.4 810.8 70.4C800.4 70.4 792.2 72.2 786.2 75.8C780.2 79.8 777.2 85.2 777.2 92C777.2 98.8 779.8 104.1 785 107.9C790.4 111.7 800.7 115.5 815.9 119.3C831.1 123.1 841.9 128 848.3 134C854.7 139.8 857.9 149 857.9 161.6C857.9 174.2 853.6 184.2 845 191.6C836.6 199 824.6 202.7 809 202.7C793.4 202.7 776.2 199.5 757.4 193.1ZM1046 99.8C1046 84.2 1047 70.7 1049 59.3C1051 47.9 1054.2 37.6 1058.6 28.4C1067.6 9.79999 1084.4 0.499994 1109 0.499994C1137 0.699991 1155.4 13.8 1164.2 39.8C1169.4 54.8 1172 72.5 1172 92.9C1172 113.1 1171 129.2 1169 141.2C1167 153.2 1163.8 164 1159.4 173.6C1150.2 193.2 1133.4 203 1109 203C1085 203 1068.3 193.2 1058.9 173.6C1050.3 155.8 1046 131.2 1046 99.8ZM1154.3 102.2C1154.3 91.4 1154 82.7 1153.4 76.1C1153 69.5 1151.9 62.2 1150.1 54.2C1148.3 46.2 1145.8 39.6 1142.6 34.4C1139.6 29.2 1135.2 24.9 1129.4 21.5C1123.8 17.9 1117 16.1 1109 16.1C1101 16.1 1094.1 17.9 1088.3 21.5C1082.7 24.9 1078.3 29.2 1075.1 34.4C1072.1 39.6 1069.7 46.2 1067.9 54.2C1065.1 66.6 1063.7 80.4 1063.7 95.6C1063.7 110.6 1064.2 122.8 1065.2 132.2C1066.4 141.4 1068.5 150.5 1071.5 159.5C1077.7 178.1 1090.2 187.4 1109 187.4C1128.2 187.4 1140.8 178 1146.8 159.2C1152 143.2 1154.5 124.2 1154.3 102.2ZM1207.1 257.6V83.3L1204.4 57.2L1219.4 55.4L1222.1 71.6C1236.7 61 1250.6 55.7 1263.8 55.7C1281.6 55.7 1295.4 62.2 1305.2 75.2C1315 88.2 1319.9 106.1 1319.9 128.9C1319.9 151.7 1314.5 169.7 1303.7 182.9C1292.9 196.1 1277.9 202.7 1258.7 202.7C1247.5 202.7 1235.6 200 1223 194.6V257.6H1207.1ZM1302.8 129.5C1302.8 111.7 1299.4 97.6 1292.6 87.2C1285.8 76.6 1276 71.3 1263.2 71.3C1250.6 71.3 1237.2 77 1223 88.4V178.4C1227.2 180.4 1232.9 182.4 1240.1 184.4C1247.5 186.2 1253.5 187.1 1258.1 187.1C1272.3 187.1 1283.3 181.9 1291.1 171.5C1298.9 161.1 1302.8 147.1 1302.8 129.5ZM1357.4 193.1L1361.3 177.5C1381.1 184.1 1396.4 187.4 1407.2 187.4C1418 187.4 1426.3 185.1 1432.1 180.5C1438.1 175.7 1441.1 169.4 1441.1 161.6C1441.1 153.8 1438.7 148.1 1433.9 144.5C1429.3 140.7 1419.6 137.1 1404.8 133.7C1390 130.3 1378.9 125.4 1371.5 119C1364.1 113 1360.4 104 1360.4 92C1360.4 80 1364.9 70.9 1373.9 64.7C1383.1 58.3 1394.9 55.1 1409.3 55.1C1423.7 55.1 1439.3 58.3 1456.1 64.7L1451.9 78.8C1434.9 73.2 1421.2 70.4 1410.8 70.4C1400.4 70.4 1392.2 72.2 1386.2 75.8C1380.2 79.8 1377.2 85.2 1377.2 92C1377.2 98.8 1379.8 104.1 1385 107.9C1390.4 111.7 1400.7 115.5 1415.9 119.3C1431.1 123.1 1441.9 128 1448.3 134C1454.7 139.8 1457.9 149 1457.9 161.6C1457.9 174.2 1453.6 184.2 1445 191.6C1436.6 199 1424.6 202.7 1409 202.7C1393.4 202.7 1376.2 199.5 1357.4 193.1Z" fill="url(#paint0_linear_129_2)"/>
<defs>
<linearGradient id="paint0_linear_129_2" x1="857.5" y1="-25" x2="939" y2="277" gradientUnits="userSpaceOnUse">
<stop/>
<stop offset="1" stop-color="#006F47"/>
</linearGradient>
</defs>
</svg>
